<svg width="100" height="26" viewBox="0 0 100 26" fill="none" xmlns="http://www.w3.org/2000/svg">
<path d="M26.0516 19.4379L27.7821 17.4786C28.0009 18.0156 28.3523 18.44 28.8363 18.7516C29.3203 19.0566 29.864 19.2091 30.4674 19.2091C31.1967 19.2091 31.7736 19.0367 32.1979 18.6919C32.6222 18.3472 32.8344 17.883 32.8344 17.2996C32.8344 16.61 32.1283 15.9238 30.716 15.2408C30.2585 15.022 29.8972 14.843 29.632 14.7038C28.3589 14.0408 27.4771 13.3943 26.9865 12.7644C26.4958 12.1279 26.2505 11.372 26.2505 10.4968C26.2505 9.29675 26.7246 8.31214 27.6727 7.54302C28.6275 6.76727 29.864 6.37939 31.3824 6.37939C32.2642 6.37939 33.0234 6.53521 33.6599 6.84683C34.303 7.15183 34.8699 7.63253 35.3606 8.28893L33.5206 10.0493C33.3018 9.62495 33.0101 9.31001 32.6454 9.10447C32.2874 8.89229 31.8531 8.78621 31.3426 8.78621C30.726 8.78621 30.2287 8.94202 29.8508 9.25365C29.4728 9.55864 29.2839 9.95646 29.2839 10.4471C29.2839 11.2162 30.0331 11.919 31.5315 12.5556C31.8299 12.6815 32.0587 12.781 32.2178 12.8539C33.451 13.4175 34.3627 14.054 34.9528 14.7635C35.5495 15.4729 35.8479 16.2818 35.8479 17.1902C35.8479 18.556 35.3805 19.6467 34.4456 20.4622C33.5173 21.2711 32.2675 21.6756 30.6961 21.6756C29.5822 21.6756 28.6275 21.4833 27.8318 21.0988C27.0362 20.7142 26.4428 20.1606 26.0516 19.4379Z" fill="black"/>
<path d="M43.027 21.2877V14.6441L38.094 6.72749H41.744L43.9022 10.7156C44.0082 10.9145 44.1177 11.1665 44.2304 11.4715C44.3431 11.7765 44.4591 12.1279 44.5785 12.5257C44.6713 12.1876 44.7741 11.8693 44.8868 11.571C45.0061 11.2726 45.1387 10.9809 45.2846 10.6957L47.4229 6.72749H51.053L46.1399 14.6441V21.2877H43.027Z" fill="black"/>
<path d="M68.1875 14.0374C68.1875 15.0784 67.9919 16.063 67.6007 16.9913C67.2162 17.9195 66.6592 18.735 65.9299 19.4379C65.174 20.1606 64.322 20.7142 63.3739 21.0988C62.4257 21.4833 61.4444 21.6756 60.43 21.6756C59.5415 21.6756 58.6696 21.5264 57.8143 21.228C56.9657 20.9231 56.1866 20.4888 55.4771 19.9252C54.5622 19.1958 53.8593 18.324 53.3687 17.3095C52.8847 16.2951 52.6427 15.2044 52.6427 14.0374C52.6427 12.9898 52.835 12.0086 53.2195 11.0936C53.6041 10.172 54.1676 9.3531 54.9102 8.63703C55.6396 7.92758 56.485 7.37726 57.4464 6.98607C58.4144 6.59488 59.4089 6.39929 60.43 6.39929C61.4444 6.39929 62.4291 6.59488 63.3838 6.98607C64.3452 7.37726 65.1939 7.92758 65.9299 8.63703C66.6658 9.3531 67.2261 10.172 67.6107 11.0936C67.9952 12.0152 68.1875 12.9965 68.1875 14.0374ZM60.43 18.9008C61.7494 18.9008 62.8368 18.44 63.6921 17.5184C64.5541 16.5901 64.985 15.4298 64.985 14.0374C64.985 12.6583 64.5508 11.498 63.6822 10.5565C62.8136 9.615 61.7295 9.14425 60.43 9.14425C59.1106 9.14425 58.0166 9.615 57.148 10.5565C56.2794 11.4914 55.8451 12.6517 55.8451 14.0374C55.8451 15.4431 56.2728 16.6067 57.1281 17.5283C57.9834 18.4433 59.084 18.9008 60.43 18.9008Z" fill="black"/>
<path d="M79.6332 15.7481L78.0021 11.0438C77.9557 10.9046 77.896 10.6659 77.8231 10.3278C77.7502 9.98962 77.6739 9.57522 77.5943 9.08457C77.5082 9.55533 77.4253 9.97967 77.3457 10.3576C77.2661 10.7289 77.2065 10.9775 77.1667 11.1035L75.5953 15.7481H79.6332ZM70.364 21.2877L75.9036 6.72749H79.4641L85.0833 21.2877H81.5427L80.3592 18.1947H74.7201L73.7057 21.2877H70.364Z" fill="black"/>
<path d="M88.2444 21.2877V6.72749H91.3573V13.3214L96.2107 6.72749H99.811L94.5996 13.3611L100 21.2877H96.2505L91.3573 13.6695V21.2877H88.2444Z" fill="black"/>
<mask id="mask0" mask-type="alpha" maskUnits="userSpaceOnUse" x="0" y="0" width="16" height="26">
<path d="M0 17.5434C0 13.351 7.5911 0 7.5911 0C7.5911 0 15.1822 13.351 15.1822 17.5434C15.1822 21.7359 11.7837 25.1346 7.5911 25.1346C3.39854 25.1346 0 21.7358 0 17.5434Z" fill="#F1904C"/>
</mask>
<g mask="url(#mask0)">
<path d="M0.000229537 17.5434C0.000229537 13.3509 7.59134 0 7.59134 0C7.59134 0 14.3404 9.82595 14.3404 14.0184L1.51699 22.0617C-2.67558 22.0617 0.000229537 21.7357 0.000229537 17.5434Z" fill="#FF7616"/>
<path d="M-0.702454 24.5817L19.0726 12.2249L26.8142 24.6141L7.03916 36.9709L-0.702454 24.5817Z" fill="black"/>
</g>
</svg>
